<?xml version="1.0" encoding="UTF-8"?>
<svg xmlns="http://www.w3.org/2000/svg" width="204" viewBox="0 0 764 136"><title>heis</title><g fill="none" fill-rule="evenodd"><path fill="#000" d="M53.3 103.5V59H19.4v44.5H.3V1.2h19.1v41.2h33.9V1.2h19.1v102.3zM96.8 103.5V1.2h64v16.3h-44.9v25.2H157v16h-41.1v28.5H162v16.3zM181.8 1.2h19.1v102.4h-19.1zM222.8 36.3V21.5c0-6.8 1.9-11.9 5.6-15.5 3.7-3.6 9.1-5.4 16-5.4h26.9c6.7 0 11.9 1.8 15.6 5.4 3.7 3.6 5.5 8.7 5.5 15.5v10.4h-18.8V21.8c0-3.4-1.9-5.1-5.7-5.1h-20.6c-3.8 0-5.7 1.7-5.7 5.1v11.6c0 1.8.2 3 .8 3.8.5.8 1.6 1.4 3.3 1.8l33.5 8.6c9.5 2.5 14.3 8.3 14.3 17.3v18.4c0 6.8-1.9 11.9-5.6 15.5-3.7 3.6-9.1 5.4-16 5.4h-28.8c-6.8 0-12.1-1.8-15.7-5.4-3.6-3.6-5.4-8.7-5.4-15.5v-9.5h18.8v9.3c0 3.4 1.9 5.1 5.7 5.1h22.3c3.8 0 5.8-1.7 5.8-5.1V68.9c0-2.7-1.4-4.5-4.3-5.1l-34.2-9c-8.9-2.4-13.3-8.6-13.3-18.5M314.8 103.5V1.2h64v16.3h-44.9v25.2H375v16h-41.1v28.5H380v16.3zM454.4 103.5l-36.7-66.1v66.1h-17.9V1.2h17.6L454 67.1V1.2h18v102.3z"></path><path d="M506.1 117.9l-8.1-2.1V32.5h56.5c7 0 12.3 1.8 16 5.5 3.7 3.7 5.5 8.9 5.5 15.8v12c0 8.1-3.6 13.4-10.8 16 8.7 1.8 13 7.2 13 16.3v15.4c0 6.9-1.9 12.2-5.5 15.8-3.7 3.6-9 5.4-16 5.4h-50.6v-16.8zm45.4-69.2h-34.3v25.4h34.6c3.7 0 5.5-1.7 5.5-5.1V54.2c-.1-3.7-2-5.5-5.8-5.5zm2.3 41.4h-36.6v28.6h36.5c3.8 0 5.7-1.9 5.7-5.6V95.3c0-3.4-1.9-5.2-5.6-5.2zM763.7 113.9c0 6.9-1.8 12.3-5.5 16-3.7 3.7-9.1 5.6-16 5.6h-27c-7 0-12.3-1.9-16-5.6-3.7-3.7-5.6-9-5.6-16V53.6c0-6.9 1.9-12.3 5.6-16 3.7-3.7 9.1-5.6 16-5.6h27c7 0 12.3 1.9 16 5.6 3.7 3.7 5.5 9 5.5 16v10.6h-18.8V54c0-3.8-1.9-5.7-5.7-5.7h-20.8c-3.9 0-5.7 1.9-5.7 5.7v59.4c0 3.8 1.9 5.7 5.7 5.7h20.8c3.8 0 5.7-1.9 5.7-5.7V97.8h-15V82.7h33.7v31.2h.1zM671.2 77.2l-4.1-1.5-4.1-1.5V32.7h-19.1v41.5l7.4 3.1.8.5v35.5c0 3.8-1.9 5.7-5.7 5.7h-22.5c-3.8 0-5.7-1.9-5.7-5.7V77.9l-7.8-3V32.7h-11.3V114c0 6.9 1.9 12.3 5.6 16 3.7 3.7 9.1 5.6 16 5.6h28.9c7 0 12.2-1.9 16-5.6 3.7-3.7 5.6-9 5.6-16V77.2z" fill="#F89C25"></path></g></svg>