<?xml version="1.0" encoding="UTF-8"?>
<svg width="321px" height="70px" viewBox="0 0 321 70" version="1.1" xmlns="http://www.w3.org/2000/svg" xmlns:xlink="http://www.w3.org/1999/xlink">
    <!-- Generator: Sketch 42 (36781) - http://www.bohemiancoding.com/sketch -->
    <title>1Page 1</title>
    <desc>Created with Sketch.</desc>
    <defs>
        <polygon id="path-1" points="0 70.541 320.626 70.541 320.626 1 0 1"/>
    </defs>
    <g id="1600-cards" stroke="none" stroke-width="1" fill="none" fill-rule="evenodd">
        <g id="Page-1" transform="translate(0.000000, -1.000000)">
            <g id="Group-3" transform="translate(79.000000, 0.541000)" fill="#000000">
                <path d="M222.2481,28.2891 L228.8851,28.2891 L228.8851,20.7371 L234.9901,20.7371 L234.9901,28.2891 L241.6261,28.2891 L241.6261,9.3931 L234.9901,9.3931 L234.9901,16.0441 L228.8851,16.0441 L228.8851,9.3931 L222.2481,9.3931 L222.2481,28.2891 Z M182.0401,14.7921 C183.4381,13.8521 185.3371,13.1851 186.9701,13.1851 C187.8041,13.1851 189.6241,13.3071 189.6241,14.9121 C189.6241,16.4751 188.0281,16.5131 187.3811,16.5131 L184.1231,16.5131 L184.1231,20.6191 L187.0061,20.6191 C187.9561,20.6191 189.7371,20.6991 189.7371,22.2251 C189.7371,22.8491 189.3621,24.0671 187.0421,24.0671 C184.7281,24.0671 183.2501,23.4371 181.3131,22.2631 L179.6111,26.7251 C183.2501,28.8051 186.5511,29.0001 188.0681,29.0001 C195.6551,29.0001 196.6041,24.6131 196.6041,23.1681 C196.6041,21.1701 195.4281,19.1351 192.7731,18.5071 L192.7731,18.4301 C194.4401,17.6861 195.5031,16.0441 195.5031,14.0101 C195.5031,9.5881 190.8401,8.6891 187.9911,8.6891 C185.3371,8.6891 182.2631,9.4701 180.2561,10.5651 L182.0401,14.7921 Z M167.6731,6.9271 C170.6731,6.9271 173.7821,5.7551 175.1461,2.5431 L170.8231,0.9051 C170.2931,3.0971 168.4351,3.2101 167.6731,3.2101 C166.9141,3.2101 165.0591,3.0971 164.5301,0.9051 L160.2081,2.5431 C161.5681,5.7551 164.6821,6.9271 167.6731,6.9271 L167.6731,6.9271 Z M157.3251,9.3931 L157.3251,28.2891 L163.7681,28.2891 L170.3311,17.8851 L170.3311,28.2891 L176.9681,28.2891 L176.9681,9.3931 L170.5961,9.3931 L163.9561,19.5241 L163.9561,9.3931 L157.3251,9.3931 Z M113.3231,24.2221 L113.3231,13.7361 C111.0851,13.6951 108.8021,15.3801 108.8021,18.9791 C108.8021,22.5791 111.0851,24.2591 113.3231,24.2221 L113.3231,24.2221 Z M119.1251,13.7361 L119.1251,24.2221 C121.3641,24.2591 123.6381,22.5791 123.6381,18.9791 C123.6381,15.3801 121.3641,13.6951 119.1251,13.7361 L119.1251,13.7361 Z M112.9031,36.5121 L112.9031,28.5721 C108.9571,28.6091 102.4301,27.0001 102.4301,18.8211 C102.4301,10.6861 108.9231,9.0801 112.9031,9.1171 L112.9031,0.9051 L119.5401,0.9051 L119.5401,9.1171 C123.5271,9.0801 130.0091,10.6861 130.0091,18.8211 C130.0091,27.0001 123.4871,28.6091 119.5401,28.5721 L119.5401,36.5121 L112.9031,36.5121 Z M83.4711,24.2221 L83.4711,13.7361 C81.2331,13.6951 78.9561,15.3801 78.9561,18.9791 C78.9561,22.5791 81.2331,24.2591 83.4711,24.2221 L83.4711,24.2221 Z M89.2781,13.7361 L89.2781,24.2221 C91.5111,24.2591 93.7881,22.5791 93.7881,18.9791 C93.7881,15.3801 91.5111,13.6951 89.2781,13.7361 L89.2781,13.7361 Z M83.0531,36.5121 L83.0531,28.5721 C79.1051,28.6091 72.5831,27.0001 72.5831,18.8211 C72.5831,10.6861 79.0701,9.0801 83.0531,9.1171 L83.0531,0.9051 L89.6901,0.9051 L89.6901,9.1171 C93.6741,9.0801 100.1571,10.6861 100.1571,18.8211 C100.1571,27.0001 93.6381,28.6091 89.6901,28.5721 L89.6901,36.5121 L83.0531,36.5121 Z M60.1401,6.9271 C63.1401,6.9271 66.2501,5.7551 67.6121,2.5431 L63.2901,0.9051 C62.7571,3.0971 60.8981,3.2101 60.1401,3.2101 C59.3821,3.2101 57.5231,3.0971 56.9891,0.9051 L52.6671,2.5431 C54.0341,5.7551 57.1451,6.9271 60.1401,6.9271 L60.1401,6.9271 Z M49.7891,9.3931 L49.7891,28.2891 L56.2321,28.2891 L62.7961,17.8851 L62.7961,28.2891 L69.4361,28.2891 L69.4361,9.3931 L63.0621,9.3931 L56.4261,19.5241 L56.4261,9.3931 L49.7891,9.3931 Z M9.2601,6.4941 L9.2601,12.7941 L11.6901,12.7941 C14.9911,12.7941 15.3331,10.7971 15.3331,9.6271 C15.3331,8.2561 14.8771,6.4941 11.6901,6.4941 L9.5641,6.4941 L9.2601,6.4941 Z M2.1331,28.2891 L2.1331,0.4721 L13.3211,0.4721 C20.8721,0.4721 22.9951,5.8681 22.9951,9.6271 C22.9951,13.4201 20.8351,18.8211 13.3211,18.8211 L9.2601,18.8211 L9.2601,28.2891 L2.1331,28.2891 Z M153.1881,9.3621 L153.1881,28.2891 L146.5691,28.2891 L146.5691,26.1861 L146.4981,26.1861 C145.3351,28.0701 143.0431,28.9181 140.8611,28.9181 C135.3371,28.9181 131.4451,24.2331 131.4451,18.8101 C131.4451,13.3851 135.2601,8.7361 140.7921,8.7361 C142.9351,8.7361 145.1881,9.5471 146.5691,11.2071 L146.5691,9.3621 L153.1881,9.3621 Z M142.5351,14.5651 C139.8451,14.5651 138.2801,16.5221 138.2801,18.8431 C138.2801,21.2411 139.8451,23.0861 142.5351,23.0861 C145.2271,23.0861 146.7911,21.2411 146.7911,18.8431 C146.7911,16.5221 145.2271,14.5651 142.5351,14.5651 L142.5351,14.5651 Z M45.6521,9.3621 L45.6521,28.2891 L39.0341,28.2891 L39.0341,26.1861 L38.9611,26.1861 C37.7981,28.0701 35.5081,28.9181 33.3231,28.9181 C27.7991,28.9181 23.9081,24.2331 23.9081,18.8101 C23.9081,13.3851 27.7281,8.7361 33.2531,8.7361 C35.3981,8.7361 37.6531,9.5471 39.0341,11.2071 L39.0341,9.3621 L45.6521,9.3621 Z M34.9991,14.5651 C32.3081,14.5651 30.7431,16.5221 30.7431,18.8431 C30.7431,21.2411 32.3081,23.0861 34.9991,23.0861 C37.6881,23.0861 39.2511,21.2411 39.2511,18.8431 C39.2511,16.5221 37.6881,14.5651 34.9991,14.5651 L34.9991,14.5651 Z M218.9821,19.6431 L218.9821,20.3471 L205.0541,20.3471 C205.0541,23.0781 206.4771,24.5521 209.1971,24.5521 C210.6221,24.5521 211.6371,24.0741 212.3621,22.8181 L218.7291,22.8181 C217.6701,27.2831 213.4901,29.3141 209.2371,29.3141 C203.0591,29.3141 198.4371,25.7711 198.4371,19.2361 C198.4371,12.9281 202.6921,9.1321 208.7651,9.1321 C215.2331,9.1321 218.9821,13.1871 218.9821,19.6431 L218.9821,19.6431 Z M205.1641,16.4731 L212.8331,16.4731 C212.5121,14.6651 210.8731,13.4871 209.0911,13.4871 C207.1651,13.4871 205.5631,14.5161 205.1641,16.4731 L205.1641,16.4731 Z M12.7301,58.4511 L10.6841,58.4511 L9.6731,64.3521 L11.6201,64.3521 C15.9761,64.3521 16.8241,63.1211 17.0741,61.5391 C17.3531,59.7981 17.0121,58.4511 12.7301,58.4511 L12.7301,58.4511 Z M24.7111,61.6201 C24.4081,63.4881 23.7981,65.3771 22.4461,66.7461 C19.4671,69.7461 14.9731,69.9871 12.1221,69.9981 L0.9741,69.9981 L5.7091,42.1821 L24.6821,42.1821 L23.7951,47.6591 L12.3221,47.6591 L11.4361,53.2101 L14.7591,53.2101 C17.2121,53.2101 20.3581,53.5391 22.5991,55.4551 C24.2491,56.8661 25.1281,58.9941 24.7111,61.6201 L24.7111,61.6201 Z M44.6661,65.1641 L34.1961,65.1641 L31.3741,69.9981 L23.3081,69.9981 L39.1861,42.1821 L47.4831,42.1821 L53.8661,69.9981 L45.7621,69.9981 L44.6661,65.1641 Z M43.5331,59.6331 L41.9051,50.7791 L41.8261,50.7791 L37.2111,59.6331 L43.5331,59.6331 Z M96.2821,42.1821 L88.6201,42.1821 L83.9931,69.9951 L91.5891,69.9961 L93.6011,57.9351 L93.6781,57.9351 L101.4871,69.9981 L111.3371,69.9961 L101.0841,55.3501 L114.9161,42.1821 L105.4911,42.1821 L94.3921,53.6531 L94.3081,53.6531 L96.2821,42.1821 Z M66.8801,42.1821 L65.1901,52.5511 L75.3231,52.5511 L77.0101,42.1821 L84.3931,42.1821 L79.9021,69.9981 L72.5451,69.9981 L74.4521,58.0391 L64.3251,58.0391 L62.4101,69.9981 L54.9951,69.9981 L59.5241,42.1821 L66.8801,42.1821 Z" id="Fill-1"/>
            </g>
            <mask id="mask-2" fill="white">
                <use xlink:href="#path-1"/>
            </mask>
            <g id="Clip-5"/>
            <polygon id="Fill-4" fill="#FFED00" mask="url(#mask-2)" points="2.318 68.223 67.222 68.223 67.222 3.32 2.318 3.32"/>
            <path d="M2.318,68.223 L67.222,68.223 L67.222,3.32 L2.318,3.32 L2.318,68.223 Z M0,70.541 L69.542,70.541 L69.542,0.999 L0,0.999 L0,70.541 Z" id="Fill-6" fill="#000000" mask="url(#mask-2)"/>
            <path d="M34.7706,43.6977 L14.7966,63.6687 L6.8716,55.7537 L26.8476,35.7757 L22.6806,31.6057 L22.6806,23.3727 L19.7866,20.4757 L19.7866,27.6557 L17.2676,30.1757 L7.1406,20.0457 L4.6356,22.5497 C4.6536,20.6607 5.0306,15.1937 9.6676,10.6357 C14.6716,5.8217 20.0756,7.9907 21.9236,9.8407 L32.0456,19.9657 L29.4636,22.5447 L34.7706,27.8537 L40.0766,22.5447 L37.4956,19.9657 L47.6156,9.8407 C49.4636,7.9907 54.8676,5.8217 59.8716,10.6357 C64.5096,15.1937 64.8866,20.6607 64.9056,22.5497 L62.4006,20.0457 L52.2726,30.1757 L49.7546,27.6557 L49.7546,20.4757 L46.8586,23.3727 L46.8586,31.6057 L42.6916,35.7757 L62.6686,55.7537 L54.7446,63.6687 L34.7706,43.6977 Z" id="Fill-7" fill="#000000" mask="url(#mask-2)"/>
        </g>
    </g>
</svg>